<mxfile host="65bd71144e" pages="2">
    <diagram id="dkHNdPPTWpZXWv9aXYBQ" name="Page-1">
        <mxGraphModel dx="1469" dy="319" grid="1" gridSize="10" guides="1" tooltips="1" connect="1" arrows="1" fold="1" page="1" pageScale="1" pageWidth="827" pageHeight="1169" math="0" shadow="0">
            <root>
                <mxCell id="0"/>
                <mxCell id="1" parent="0"/>
                <mxCell id="4cQ14AEPKGNcAOL0g5Nu-1" value="" style="group" parent="1" vertex="1" connectable="0">
                    <mxGeometry x="-290" y="20" width="170" height="170" as="geometry"/>
                </mxCell>
                <mxCell id="4cQ14AEPKGNcAOL0g5Nu-2" value="" style="ellipse;whiteSpace=wrap;html=1;aspect=fixed;fillColor=#0050ef;strokeColor=#001DBC;fontColor=#ffffff;" parent="4cQ14AEPKGNcAOL0g5Nu-1" vertex="1">
                    <mxGeometry x="56" width="60" height="60" as="geometry"/>
                </mxCell>
                <mxCell id="4cQ14AEPKGNcAOL0g5Nu-3" value="&lt;div&gt;&lt;b&gt;TODO App User&lt;/b&gt;&lt;br&gt;&lt;/div&gt;&lt;div&gt;[Person]&lt;/div&gt;&lt;div&gt;Uses App to organise/manage TODO list&lt;br&gt;&lt;/div&gt;" style="rounded=1;whiteSpace=wrap;html=1;fillColor=#0050ef;strokeColor=#001DBC;fontColor=#ffffff;" parent="4cQ14AEPKGNcAOL0g5Nu-1" vertex="1">
                    <mxGeometry y="60" width="170" height="110" as="geometry"/>
                </mxCell>
                <mxCell id="4cQ14AEPKGNcAOL0g5Nu-4" value="&lt;div&gt;&lt;b&gt;Web Application&lt;/b&gt;&lt;/div&gt;&lt;div&gt;[Container&lt;br&gt;&lt;/div&gt;&lt;div&gt;: Flask/Gunicorn]&lt;/div&gt;&lt;div&gt;Delivers dynamic content to the Single Page&lt;br&gt;&lt;/div&gt;" style="rounded=0;whiteSpace=wrap;html=1;fillColor=#1ba1e2;strokeColor=#006EAF;fontColor=#ffffff;" parent="1" vertex="1">
                    <mxGeometry x="-110" y="320" width="230" height="140" as="geometry"/>
                </mxCell>
                <mxCell id="4cQ14AEPKGNcAOL0g5Nu-6" value="&lt;div&gt;&lt;b&gt;Trello API&lt;/b&gt;&lt;/div&gt;&lt;div&gt;[Software System]&lt;/div&gt;&lt;div&gt;REST API System to store TODO lists&lt;br&gt;&lt;/div&gt;" style="rounded=0;whiteSpace=wrap;html=1;fillColor=#bac8d3;strokeColor=#23445d;" parent="1" vertex="1">
                    <mxGeometry x="290" y="320" width="250" height="130" as="geometry"/>
                </mxCell>
                <mxCell id="4cQ14AEPKGNcAOL0g5Nu-9" value="&lt;div&gt;&lt;b&gt;Single Page Application&lt;/b&gt;&lt;/div&gt;&lt;div&gt;[Container:]&lt;/div&gt;&lt;div&gt;Provides all functionality of the TODO App to users via their web browser&lt;br&gt;&lt;/div&gt;" style="rounded=1;whiteSpace=wrap;html=1;fillColor=#1ba1e2;strokeColor=#006EAF;fontColor=#ffffff;" parent="1" vertex="1">
                    <mxGeometry x="-540" y="320" width="230" height="170" as="geometry"/>
                </mxCell>
                <mxCell id="4cQ14AEPKGNcAOL0g5Nu-13" value="" style="endArrow=none;dashed=1;html=1;" parent="1" edge="1">
                    <mxGeometry width="50" height="50" relative="1" as="geometry">
                        <mxPoint x="-560" y="270" as="sourcePoint"/>
                        <mxPoint x="160" y="270" as="targetPoint"/>
                    </mxGeometry>
                </mxCell>
                <mxCell id="4cQ14AEPKGNcAOL0g5Nu-14" value="" style="endArrow=none;dashed=1;html=1;" parent="1" edge="1">
                    <mxGeometry width="50" height="50" relative="1" as="geometry">
                        <mxPoint x="-560" y="560" as="sourcePoint"/>
                        <mxPoint x="160" y="560" as="targetPoint"/>
                    </mxGeometry>
                </mxCell>
                <mxCell id="4cQ14AEPKGNcAOL0g5Nu-15" value="" style="endArrow=none;dashed=1;html=1;" parent="1" edge="1">
                    <mxGeometry width="50" height="50" relative="1" as="geometry">
                        <mxPoint x="-560" y="560" as="sourcePoint"/>
                        <mxPoint x="-560" y="270" as="targetPoint"/>
                    </mxGeometry>
                </mxCell>
                <mxCell id="4cQ14AEPKGNcAOL0g5Nu-16" value="" style="endArrow=none;dashed=1;html=1;" parent="1" edge="1">
                    <mxGeometry width="50" height="50" relative="1" as="geometry">
                        <mxPoint x="160" y="560" as="sourcePoint"/>
                        <mxPoint x="160" y="270" as="targetPoint"/>
                    </mxGeometry>
                </mxCell>
                <mxCell id="4cQ14AEPKGNcAOL0g5Nu-17" value="" style="endArrow=classic;html=1;entryX=0;entryY=0.5;entryDx=0;entryDy=0;" parent="1" target="4cQ14AEPKGNcAOL0g5Nu-6" edge="1">
                    <mxGeometry relative="1" as="geometry">
                        <mxPoint x="120" y="384.5" as="sourcePoint"/>
                        <mxPoint x="220" y="384.5" as="targetPoint"/>
                    </mxGeometry>
                </mxCell>
                <mxCell id="4cQ14AEPKGNcAOL0g5Nu-18" value="Makes API Calls To" style="edgeLabel;resizable=0;html=1;align=center;verticalAlign=middle;" parent="4cQ14AEPKGNcAOL0g5Nu-17" connectable="0" vertex="1">
                    <mxGeometry relative="1" as="geometry">
                        <mxPoint x="1" as="offset"/>
                    </mxGeometry>
                </mxCell>
                <mxCell id="4cQ14AEPKGNcAOL0g5Nu-38" value="" style="endArrow=classic;html=1;exitX=0;exitY=0.564;exitDx=0;exitDy=0;exitPerimeter=0;entryX=1.004;entryY=0.459;entryDx=0;entryDy=0;entryPerimeter=0;" parent="1" source="4cQ14AEPKGNcAOL0g5Nu-4" target="4cQ14AEPKGNcAOL0g5Nu-9" edge="1">
                    <mxGeometry relative="1" as="geometry">
                        <mxPoint x="-150" y="400" as="sourcePoint"/>
                        <mxPoint x="-270" y="398" as="targetPoint"/>
                    </mxGeometry>
                </mxCell>
                <mxCell id="4cQ14AEPKGNcAOL0g5Nu-39" value="Delivers to user's web browser" style="edgeLabel;resizable=0;html=1;align=center;verticalAlign=middle;" parent="4cQ14AEPKGNcAOL0g5Nu-38" connectable="0" vertex="1">
                    <mxGeometry relative="1" as="geometry"/>
                </mxCell>
                <mxCell id="4cQ14AEPKGNcAOL0g5Nu-24" value="" style="rounded=1;whiteSpace=wrap;html=1;" parent="1" vertex="1">
                    <mxGeometry x="-560" y="720" width="1020" height="170" as="geometry"/>
                </mxCell>
                <mxCell id="4cQ14AEPKGNcAOL0g5Nu-25" value="" style="group" parent="1" vertex="1" connectable="0">
                    <mxGeometry x="-500" y="745" width="140" height="120" as="geometry"/>
                </mxCell>
                <mxCell id="4cQ14AEPKGNcAOL0g5Nu-26" value="" style="ellipse;whiteSpace=wrap;html=1;aspect=fixed;fillColor=#0050ef;strokeColor=#001DBC;fontColor=#ffffff;" parent="4cQ14AEPKGNcAOL0g5Nu-25" vertex="1">
                    <mxGeometry x="42.11764705882353" width="42.352941176470594" height="42.352941176470594" as="geometry"/>
                </mxCell>
                <mxCell id="4cQ14AEPKGNcAOL0g5Nu-27" value="Person" style="rounded=1;whiteSpace=wrap;html=1;fillColor=#0050ef;strokeColor=#001DBC;fontColor=#ffffff;" parent="4cQ14AEPKGNcAOL0g5Nu-25" vertex="1">
                    <mxGeometry y="42.35" width="120" height="57.65" as="geometry"/>
                </mxCell>
                <mxCell id="4cQ14AEPKGNcAOL0g5Nu-28" value="" style="group" parent="1" vertex="1" connectable="0">
                    <mxGeometry x="-340" y="785" width="100" height="60" as="geometry"/>
                </mxCell>
                <mxCell id="4cQ14AEPKGNcAOL0g5Nu-29" value="" style="endArrow=none;dashed=1;html=1;" parent="4cQ14AEPKGNcAOL0g5Nu-28" edge="1">
                    <mxGeometry width="50" height="50" relative="1" as="geometry">
                        <mxPoint as="sourcePoint"/>
                        <mxPoint x="100" as="targetPoint"/>
                        <Array as="points">
                            <mxPoint/>
                        </Array>
                    </mxGeometry>
                </mxCell>
                <mxCell id="4cQ14AEPKGNcAOL0g5Nu-30" value="" style="endArrow=none;dashed=1;html=1;" parent="4cQ14AEPKGNcAOL0g5Nu-28" edge="1">
                    <mxGeometry width="50" height="50" relative="1" as="geometry">
                        <mxPoint x="100" y="60" as="sourcePoint"/>
                        <mxPoint x="100" as="targetPoint"/>
                        <Array as="points"/>
                    </mxGeometry>
                </mxCell>
                <mxCell id="4cQ14AEPKGNcAOL0g5Nu-31" value="" style="endArrow=none;dashed=1;html=1;" parent="4cQ14AEPKGNcAOL0g5Nu-28" edge="1">
                    <mxGeometry width="50" height="50" relative="1" as="geometry">
                        <mxPoint y="60" as="sourcePoint"/>
                        <mxPoint x="100" y="60" as="targetPoint"/>
                        <Array as="points">
                            <mxPoint y="60"/>
                        </Array>
                    </mxGeometry>
                </mxCell>
                <mxCell id="4cQ14AEPKGNcAOL0g5Nu-32" value="" style="endArrow=none;dashed=1;html=1;" parent="4cQ14AEPKGNcAOL0g5Nu-28" edge="1">
                    <mxGeometry width="50" height="50" relative="1" as="geometry">
                        <mxPoint y="60" as="sourcePoint"/>
                        <mxPoint as="targetPoint"/>
                        <Array as="points"/>
                    </mxGeometry>
                </mxCell>
                <mxCell id="4cQ14AEPKGNcAOL0g5Nu-33" value="Software Sytem" style="rounded=0;whiteSpace=wrap;html=1;fillColor=#1ba1e2;strokeColor=#006EAF;fontColor=#ffffff;" parent="1" vertex="1">
                    <mxGeometry x="-200" y="785" width="120" height="60" as="geometry"/>
                </mxCell>
                <mxCell id="4cQ14AEPKGNcAOL0g5Nu-34" value="Existing Software System" style="rounded=0;whiteSpace=wrap;html=1;fillColor=#bac8d3;strokeColor=#23445d;" parent="1" vertex="1">
                    <mxGeometry x="-46" y="785" width="120" height="60" as="geometry"/>
                </mxCell>
                <mxCell id="4cQ14AEPKGNcAOL0g5Nu-35" value="" style="endArrow=classic;html=1;" parent="1" edge="1">
                    <mxGeometry x="-516" y="720" as="geometry">
                        <mxPoint x="100" y="814.5" as="sourcePoint"/>
                        <mxPoint x="200" y="814.5" as="targetPoint"/>
                    </mxGeometry>
                </mxCell>
                <mxCell id="4cQ14AEPKGNcAOL0g5Nu-36" value="Relationship" style="edgeLabel;resizable=0;html=1;align=center;verticalAlign=middle;" parent="4cQ14AEPKGNcAOL0g5Nu-35" connectable="0" vertex="1">
                    <mxGeometry relative="1" as="geometry"/>
                </mxCell>
                <mxCell id="4cQ14AEPKGNcAOL0g5Nu-37" value="Internal Software System" style="text;html=1;strokeColor=none;fillColor=none;align=center;verticalAlign=middle;whiteSpace=wrap;rounded=0;" parent="1" vertex="1">
                    <mxGeometry x="-313" y="805" width="40" height="20" as="geometry"/>
                </mxCell>
                <mxCell id="4cQ14AEPKGNcAOL0g5Nu-40" value="Containr, Web Browser" style="rounded=1;whiteSpace=wrap;html=1;fillColor=#1ba1e2;strokeColor=#006EAF;fontColor=#ffffff;" parent="1" vertex="1">
                    <mxGeometry x="250" y="765" width="120" height="85" as="geometry"/>
                </mxCell>
                <mxCell id="4cQ14AEPKGNcAOL0g5Nu-41" value="" style="endArrow=classic;html=1;exitX=0.5;exitY=1;exitDx=0;exitDy=0;entryX=0.5;entryY=0;entryDx=0;entryDy=0;" parent="1" source="4cQ14AEPKGNcAOL0g5Nu-3" target="4cQ14AEPKGNcAOL0g5Nu-9" edge="1">
                    <mxGeometry relative="1" as="geometry">
                        <mxPoint x="-230" y="240" as="sourcePoint"/>
                        <mxPoint x="-130" y="240" as="targetPoint"/>
                    </mxGeometry>
                </mxCell>
                <mxCell id="4cQ14AEPKGNcAOL0g5Nu-42" value="Adds, views and manages TODO lists/items" style="edgeLabel;resizable=0;html=1;align=center;verticalAlign=middle;" parent="4cQ14AEPKGNcAOL0g5Nu-41" connectable="0" vertex="1">
                    <mxGeometry relative="1" as="geometry"/>
                </mxCell>
            </root>
        </mxGraphModel>
    </diagram>
    <diagram id="AbyTnb3ERhHMn_pa4dGo" name="Page-2">
        <mxGraphModel dx="1469" dy="319" grid="1" gridSize="10" guides="1" tooltips="1" connect="1" arrows="1" fold="1" page="1" pageScale="1" pageWidth="827" pageHeight="1169" math="0" shadow="0">
            <root>
                <mxCell id="pgOKWbctN6__go5a5KIf-0"/>
                <mxCell id="pgOKWbctN6__go5a5KIf-1" parent="pgOKWbctN6__go5a5KIf-0"/>
                <mxCell id="O82plFW92IaLs6hFWdGC-0" value="&lt;div&gt;&lt;b&gt;Single Page Application&lt;/b&gt;&lt;/div&gt;&lt;div&gt;[Container:]&lt;/div&gt;&lt;div&gt;Provides all functionality of the TODO App to users via their web browser&lt;br&gt;&lt;/div&gt;" style="rounded=1;whiteSpace=wrap;html=1;fillColor=#1ba1e2;strokeColor=#006EAF;fontColor=#ffffff;" parent="pgOKWbctN6__go5a5KIf-1" vertex="1">
                    <mxGeometry x="-760" y="30" width="200" height="150" as="geometry"/>
                </mxCell>
                <mxCell id="O82plFW92IaLs6hFWdGC-1" value="&lt;div&gt;&lt;b&gt;TODO List Controller&lt;/b&gt;&lt;/div&gt;&lt;div&gt;[Component: Flask/Gunicorn]&lt;/div&gt;&lt;div&gt;Provides users with their list of TODO items&lt;br&gt;&lt;/div&gt;" style="rounded=0;whiteSpace=wrap;html=1;fillColor=#b1ddf0;strokeColor=#10739e;" parent="pgOKWbctN6__go5a5KIf-1" vertex="1">
                    <mxGeometry x="-760" y="270" width="220" height="120" as="geometry"/>
                </mxCell>
                <mxCell id="O82plFW92IaLs6hFWdGC-2" value="&lt;div&gt;&lt;b&gt;Trello API Controller&lt;/b&gt;&lt;/div&gt;&lt;div&gt;[Component: Python]&lt;/div&gt;&lt;div&gt;Sends and receives TODO lists to/from Trello API&lt;br&gt;&lt;/div&gt;" style="rounded=0;whiteSpace=wrap;html=1;fillColor=#b1ddf0;strokeColor=#10739e;" parent="pgOKWbctN6__go5a5KIf-1" vertex="1">
                    <mxGeometry x="-450" y="270" width="220" height="120" as="geometry"/>
                </mxCell>
                <mxCell id="2CTs9u-8DciM8nVV44fE-0" value="&lt;div&gt;&lt;b&gt;Trello API&lt;/b&gt;&lt;/div&gt;&lt;div&gt;[Software System]&lt;/div&gt;&lt;div&gt;REST API System to store TODO lists&lt;br&gt;&lt;/div&gt;" style="rounded=0;whiteSpace=wrap;html=1;fillColor=#bac8d3;strokeColor=#23445d;" parent="pgOKWbctN6__go5a5KIf-1" vertex="1">
                    <mxGeometry x="-90" y="260" width="250" height="130" as="geometry"/>
                </mxCell>
                <mxCell id="2CTs9u-8DciM8nVV44fE-1" value="" style="endArrow=classic;html=1;entryX=0;entryY=0.5;entryDx=0;entryDy=0;exitX=1.005;exitY=0.45;exitDx=0;exitDy=0;exitPerimeter=0;" parent="pgOKWbctN6__go5a5KIf-1" source="O82plFW92IaLs6hFWdGC-2" target="2CTs9u-8DciM8nVV44fE-0" edge="1">
                    <mxGeometry relative="1" as="geometry">
                        <mxPoint x="-200" y="325" as="sourcePoint"/>
                        <mxPoint x="-140" y="324.5" as="targetPoint"/>
                    </mxGeometry>
                </mxCell>
                <mxCell id="2CTs9u-8DciM8nVV44fE-2" value="Makes API Calls to&lt;br&gt;[&lt;font style=&quot;font-size: 10px&quot;&gt;JSON/HTTPS&lt;/font&gt;]" style="edgeLabel;resizable=0;html=1;align=center;verticalAlign=middle;" parent="2CTs9u-8DciM8nVV44fE-1" connectable="0" vertex="1">
                    <mxGeometry relative="1" as="geometry">
                        <mxPoint as="offset"/>
                    </mxGeometry>
                </mxCell>
                <mxCell id="2CTs9u-8DciM8nVV44fE-3" value="" style="endArrow=classic;html=1;exitX=0.5;exitY=1;exitDx=0;exitDy=0;entryX=0.459;entryY=0.008;entryDx=0;entryDy=0;entryPerimeter=0;" parent="pgOKWbctN6__go5a5KIf-1" source="O82plFW92IaLs6hFWdGC-0" target="O82plFW92IaLs6hFWdGC-1" edge="1">
                    <mxGeometry relative="1" as="geometry">
                        <mxPoint x="-660.5" y="200" as="sourcePoint"/>
                        <mxPoint x="-660.5" y="260" as="targetPoint"/>
                    </mxGeometry>
                </mxCell>
                <mxCell id="2CTs9u-8DciM8nVV44fE-4" value="Makes HTTP Calls to" style="edgeLabel;resizable=0;html=1;align=center;verticalAlign=middle;" parent="2CTs9u-8DciM8nVV44fE-3" connectable="0" vertex="1">
                    <mxGeometry relative="1" as="geometry"/>
                </mxCell>
                <mxCell id="2CTs9u-8DciM8nVV44fE-5" value="" style="endArrow=classic;html=1;exitX=1;exitY=0.5;exitDx=0;exitDy=0;" parent="pgOKWbctN6__go5a5KIf-1" source="O82plFW92IaLs6hFWdGC-1" edge="1">
                    <mxGeometry relative="1" as="geometry">
                        <mxPoint x="-520" y="329.5" as="sourcePoint"/>
                        <mxPoint x="-450" y="330" as="targetPoint"/>
                    </mxGeometry>
                </mxCell>
                <mxCell id="2CTs9u-8DciM8nVV44fE-6" value="Uses" style="edgeLabel;resizable=0;html=1;align=center;verticalAlign=middle;" parent="2CTs9u-8DciM8nVV44fE-5" connectable="0" vertex="1">
                    <mxGeometry relative="1" as="geometry"/>
                </mxCell>
                <mxCell id="2CTs9u-8DciM8nVV44fE-7" value="" style="endArrow=none;dashed=1;html=1;" parent="pgOKWbctN6__go5a5KIf-1" edge="1">
                    <mxGeometry width="50" height="50" relative="1" as="geometry">
                        <mxPoint x="-800" y="240" as="sourcePoint"/>
                        <mxPoint x="-200" y="240" as="targetPoint"/>
                    </mxGeometry>
                </mxCell>
                <mxCell id="2CTs9u-8DciM8nVV44fE-8" value="" style="endArrow=none;dashed=1;html=1;" parent="pgOKWbctN6__go5a5KIf-1" edge="1">
                    <mxGeometry width="50" height="50" relative="1" as="geometry">
                        <mxPoint x="-800" y="480" as="sourcePoint"/>
                        <mxPoint x="-800" y="240" as="targetPoint"/>
                    </mxGeometry>
                </mxCell>
                <mxCell id="2CTs9u-8DciM8nVV44fE-9" value="" style="endArrow=none;dashed=1;html=1;" parent="pgOKWbctN6__go5a5KIf-1" edge="1">
                    <mxGeometry width="50" height="50" relative="1" as="geometry">
                        <mxPoint x="-200" y="480" as="sourcePoint"/>
                        <mxPoint x="-200" y="240" as="targetPoint"/>
                    </mxGeometry>
                </mxCell>
                <mxCell id="2CTs9u-8DciM8nVV44fE-10" value="" style="endArrow=none;dashed=1;html=1;" parent="pgOKWbctN6__go5a5KIf-1" edge="1">
                    <mxGeometry width="50" height="50" relative="1" as="geometry">
                        <mxPoint x="-800" y="480" as="sourcePoint"/>
                        <mxPoint x="-200" y="480" as="targetPoint"/>
                    </mxGeometry>
                </mxCell>
                <mxCell id="NpSiB4US3QMShvBUDVzg-0" value="" style="rounded=1;whiteSpace=wrap;html=1;" parent="pgOKWbctN6__go5a5KIf-1" vertex="1">
                    <mxGeometry x="-790" y="720" width="870" height="170" as="geometry"/>
                </mxCell>
                <mxCell id="NpSiB4US3QMShvBUDVzg-4" value="" style="group" parent="pgOKWbctN6__go5a5KIf-1" vertex="1" connectable="0">
                    <mxGeometry x="-733" y="785" width="100" height="60" as="geometry"/>
                </mxCell>
                <mxCell id="NpSiB4US3QMShvBUDVzg-5" value="" style="endArrow=none;dashed=1;html=1;" parent="NpSiB4US3QMShvBUDVzg-4" edge="1">
                    <mxGeometry width="50" height="50" relative="1" as="geometry">
                        <mxPoint as="sourcePoint"/>
                        <mxPoint x="100" as="targetPoint"/>
                        <Array as="points">
                            <mxPoint/>
                        </Array>
                    </mxGeometry>
                </mxCell>
                <mxCell id="NpSiB4US3QMShvBUDVzg-6" value="" style="endArrow=none;dashed=1;html=1;" parent="NpSiB4US3QMShvBUDVzg-4" edge="1">
                    <mxGeometry width="50" height="50" relative="1" as="geometry">
                        <mxPoint x="100" y="60" as="sourcePoint"/>
                        <mxPoint x="100" as="targetPoint"/>
                        <Array as="points"/>
                    </mxGeometry>
                </mxCell>
                <mxCell id="NpSiB4US3QMShvBUDVzg-7" value="" style="endArrow=none;dashed=1;html=1;" parent="NpSiB4US3QMShvBUDVzg-4" edge="1">
                    <mxGeometry width="50" height="50" relative="1" as="geometry">
                        <mxPoint y="60" as="sourcePoint"/>
                        <mxPoint x="100" y="60" as="targetPoint"/>
                        <Array as="points">
                            <mxPoint y="60"/>
                        </Array>
                    </mxGeometry>
                </mxCell>
                <mxCell id="NpSiB4US3QMShvBUDVzg-8" value="" style="endArrow=none;dashed=1;html=1;" parent="NpSiB4US3QMShvBUDVzg-4" edge="1">
                    <mxGeometry width="50" height="50" relative="1" as="geometry">
                        <mxPoint y="60" as="sourcePoint"/>
                        <mxPoint as="targetPoint"/>
                        <Array as="points"/>
                    </mxGeometry>
                </mxCell>
                <mxCell id="NpSiB4US3QMShvBUDVzg-9" value="Component" style="rounded=0;whiteSpace=wrap;html=1;fillColor=#b1ddf0;strokeColor=#10739e;" parent="pgOKWbctN6__go5a5KIf-1" vertex="1">
                    <mxGeometry x="-593" y="785" width="120" height="60" as="geometry"/>
                </mxCell>
                <mxCell id="NpSiB4US3QMShvBUDVzg-10" value="Existing Software System" style="rounded=0;whiteSpace=wrap;html=1;fillColor=#bac8d3;strokeColor=#23445d;" parent="pgOKWbctN6__go5a5KIf-1" vertex="1">
                    <mxGeometry x="-439" y="785" width="120" height="60" as="geometry"/>
                </mxCell>
                <mxCell id="NpSiB4US3QMShvBUDVzg-12" value="Internal Software System" style="text;html=1;strokeColor=none;fillColor=none;align=center;verticalAlign=middle;whiteSpace=wrap;rounded=0;" parent="pgOKWbctN6__go5a5KIf-1" vertex="1">
                    <mxGeometry x="-706" y="805" width="40" height="20" as="geometry"/>
                </mxCell>
                <mxCell id="NpSiB4US3QMShvBUDVzg-13" value="Containr, Web Browser" style="rounded=1;whiteSpace=wrap;html=1;fillColor=#1ba1e2;strokeColor=#006EAF;fontColor=#ffffff;" parent="pgOKWbctN6__go5a5KIf-1" vertex="1">
                    <mxGeometry x="-143" y="765" width="120" height="85" as="geometry"/>
                </mxCell>
                <mxCell id="eaE_WYRPWTfzyrHME4ff-0" value="" style="endArrow=classic;html=1;" parent="pgOKWbctN6__go5a5KIf-1" edge="1">
                    <mxGeometry x="-889" y="720" as="geometry">
                        <mxPoint x="-273" y="814.5" as="sourcePoint"/>
                        <mxPoint x="-173" y="814.5" as="targetPoint"/>
                    </mxGeometry>
                </mxCell>
                <mxCell id="eaE_WYRPWTfzyrHME4ff-1" value="Relationship" style="edgeLabel;resizable=0;html=1;align=center;verticalAlign=middle;" parent="eaE_WYRPWTfzyrHME4ff-0" connectable="0" vertex="1">
                    <mxGeometry relative="1" as="geometry"/>
                </mxCell>
            </root>
        </mxGraphModel>
    </diagram>
</mxfile>